<svg width="101" height="48" viewBox="0 0 110 52" fill="none" xmlns="http://www.w3.org/2000/svg">
<path d="M0 0H95L102.5 7.5L110 15V52H0V0Z" fill="#2E3440"/>
<path d="M20.3484 38V25.456H16.3164V22.128H20.3484V19.184C20.3484 18.096 20.6684 17.232 21.3084 16.592C21.9697 15.9307 22.823 15.6 23.8684 15.6H28.0284V18.928H25.2764C24.679 18.928 24.3804 19.248 24.3804 19.888V22.128H28.5404V25.456H24.3804V38H20.3484ZM36.3399 38.448C35.2092 38.448 34.1959 38.256 33.2999 37.872C32.4039 37.4667 31.6892 36.8907 31.1559 36.144C30.6439 35.376 30.3879 34.448 30.3879 33.36C30.3879 32.272 30.6439 31.3653 31.1559 30.64C31.6892 29.8933 32.4145 29.3387 33.3319 28.976C34.2705 28.592 35.3372 28.4 36.5319 28.4H40.8839V27.504C40.8839 26.7573 40.6492 26.1493 40.1799 25.68C39.7105 25.1893 38.9639 24.944 37.9399 24.944C36.9372 24.944 36.1905 25.1787 35.6999 25.648C35.2092 26.096 34.8892 26.6827 34.7399 27.408L31.0279 26.16C31.2839 25.3493 31.6892 24.6133 32.2439 23.952C32.8199 23.2693 33.5772 22.7253 34.5159 22.32C35.4759 21.8933 36.6385 21.68 38.0039 21.68C40.0945 21.68 41.7479 22.2027 42.9639 23.248C44.1799 24.2933 44.7879 25.808 44.7879 27.792V33.712C44.7879 34.352 45.0865 34.672 45.6839 34.672H46.9639V38H44.2759C43.4865 38 42.8359 37.808 42.3239 37.424C41.8119 37.04 41.5559 36.528 41.5559 35.888V35.856H40.9479C40.8625 36.112 40.6705 36.4533 40.3719 36.88C40.0732 37.2853 39.6039 37.648 38.9639 37.968C38.3239 38.288 37.4492 38.448 36.3399 38.448ZM37.0439 35.184C38.1745 35.184 39.0919 34.8747 39.7959 34.256C40.5212 33.616 40.8839 32.7733 40.8839 31.728V31.408H36.8199C36.0732 31.408 35.4865 31.568 35.0599 31.888C34.6332 32.208 34.4199 32.656 34.4199 33.232C34.4199 33.808 34.6439 34.2773 35.0919 34.64C35.5399 35.0027 36.1905 35.184 37.0439 35.184ZM49.9119 38V15.6H53.9439V38H49.9119ZM65.8679 38.448C64.3319 38.448 62.9345 38.128 61.6759 37.488C60.4385 36.848 59.4572 35.92 58.7319 34.704C58.0065 33.488 57.6439 32.016 57.6439 30.288V29.84C57.6439 28.112 58.0065 26.64 58.7319 25.424C59.4572 24.208 60.4385 23.28 61.6759 22.64C62.9345 22 64.3319 21.68 65.8679 21.68C67.3825 21.68 68.6839 21.9467 69.7719 22.48C70.8599 23.0133 71.7345 23.7493 72.3959 24.688C73.0785 25.6053 73.5265 26.6507 73.7399 27.824L69.8359 28.656C69.7505 28.016 69.5585 27.44 69.2599 26.928C68.9612 26.416 68.5345 26.0107 67.9799 25.712C67.4465 25.4133 66.7745 25.264 65.9639 25.264C65.1532 25.264 64.4172 25.4453 63.7559 25.808C63.1159 26.1493 62.6039 26.672 62.2199 27.376C61.8572 28.0587 61.6759 28.9013 61.6759 29.904V30.224C61.6759 31.2267 61.8572 32.08 62.2199 32.784C62.6039 33.4667 63.1159 33.9893 63.7559 34.352C64.4172 34.6933 65.1532 34.864 65.9639 34.864C67.1799 34.864 68.0972 34.5547 68.7159 33.936C69.3559 33.296 69.7612 32.464 69.9319 31.44L73.8359 32.368C73.5585 33.4987 73.0785 34.5333 72.3959 35.472C71.7345 36.3893 70.8599 37.1147 69.7719 37.648C68.6839 38.1813 67.3825 38.448 65.8679 38.448ZM84.7139 38.448C83.1352 38.448 81.7165 38.128 80.4579 37.488C79.1992 36.848 78.2072 35.92 77.4819 34.704C76.7565 33.488 76.3939 32.0267 76.3939 30.32V29.808C76.3939 28.1013 76.7565 26.64 77.4819 25.424C78.2072 24.208 79.1992 23.28 80.4579 22.64C81.7165 22 83.1352 21.68 84.7139 21.68C86.2925 21.68 87.7112 22 88.9699 22.64C90.2285 23.28 91.2205 24.208 91.9459 25.424C92.6712 26.64 93.0339 28.1013 93.0339 29.808V30.32C93.0339 32.0267 92.6712 33.488 91.9459 34.704C91.2205 35.92 90.2285 36.848 88.9699 37.488C87.7112 38.128 86.2925 38.448 84.7139 38.448ZM84.7139 34.864C85.9512 34.864 86.9752 34.4693 87.7859 33.68C88.5965 32.8693 89.0019 31.7173 89.0019 30.224V29.904C89.0019 28.4107 88.5965 27.2693 87.7859 26.48C86.9965 25.6693 85.9725 25.264 84.7139 25.264C83.4765 25.264 82.4525 25.6693 81.6419 26.48C80.8312 27.2693 80.4259 28.4107 80.4259 29.904V30.224C80.4259 31.7173 80.8312 32.8693 81.6419 33.68C82.4525 34.4693 83.4765 34.864 84.7139 34.864Z" fill="#ECEFF4"/>
</svg>
